<svg xmlns="http://www.w3.org/2000/svg" version="1.1" xmlns:xlink="http://www.w3.org/1999/xlink" width="512" height="512" x="0" y="0" viewBox="0 0 512 512" style="enable-background:new 0 0 512 512" xml:space="preserve" class=""><g><g fill-rule="evenodd" clip-rule="evenodd"><path d="M235.36 264.97V57.36c0-4.54-3.69-8.25-8.25-8.25-60.55 0-115.37 24.55-155.06 64.23-19.25 19.25-34.95 42.09-46.01 67.41 13.75-8.53 29.96-13.46 47.34-13.46 24.83 0 47.31 10.06 63.58 26.33s26.33 38.75 26.33 63.58-10.06 47.31-26.33 63.58c-3.6 3.57-7.48 6.86-11.65 9.81h6.29c8.73 0 16.64 3.57 22.39 9.3 5.73 5.73 9.3 13.66 9.3 22.39 0 8.7-3.57 16.64-9.3 22.37-.37.37-.74.71-1.11 1.05.37.34.74.68 1.11 1.05 5.73 5.73 9.3 13.66 9.3 22.37 0 8.73-3.57 16.67-9.3 22.39-.37.37-.74.71-1.11 1.05.37.34.74.68 1.11 1.05 5.73 5.73 9.3 13.63 9.3 22.37 0 7.57-2.69 14.51-7.11 19.96 22.25 7.6 46.09 11.74 70.92 11.74 29.65 0 57.97-5.92 83.82-16.64 26.9-11.11 51.05-27.41 71.23-47.59 3.2-3.23 3.2-8.45 0-11.68z" fill="#ff2d2d" opacity="1" data-original="#000000" class=""></path><path d="M503.75 272.8H292.74c-2.13 0-4.22.82-5.84 2.41-3.23 3.23-3.23 8.48 0 11.68L436.11 436.1c3.2 3.23 8.45 3.23 11.65 0 20.18-20.18 36.48-44.33 47.62-71.21 10.72-25.88 16.61-54.2 16.61-83.85.01-4.56-3.68-8.24-8.24-8.24zM264.56 251.88h211.01c4.56 0 8.25-3.69 8.25-8.25 0-60.55-24.55-115.37-64.2-155.06-39.69-39.69-94.51-64.23-155.06-64.23-4.56 0-8.28 3.71-8.28 8.28v211.01c0 4.56 3.72 8.25 8.28 8.25zM142.33 445.26c-2.78-2.75-6.55-4.45-10.71-4.45H15.17c-4.17 0-7.97 1.7-10.72 4.45C1.7 448.03 0 451.8 0 455.97s1.7 7.97 4.45 10.71c2.75 2.75 6.55 4.45 10.72 4.45h116.45c2.66 0 5.16-.68 7.34-1.93 1.25-.68 2.38-1.53 3.37-2.52 2.75-2.75 4.45-6.55 4.45-10.71 0-.45-.03-.94-.06-1.39-.34-3.6-1.95-6.86-4.39-9.32zM131.62 393.95H15.17c-4.17 0-7.97 1.73-10.72 4.48C1.7 401.18 0 404.97 0 409.11c0 4.17 1.7 7.97 4.45 10.71 2.75 2.75 6.55 4.45 10.72 4.45h116.45c4.17 0 7.94-1.7 10.71-4.45 2.75-2.75 4.45-6.55 4.45-10.71 0-4.14-1.7-7.94-4.45-10.69-2.78-2.74-6.55-4.47-10.71-4.47zM131.62 347.12H15.17c-4.17 0-7.97 1.7-10.72 4.45A15.129 15.129 0 0 0 0 362.28c0 4.14 1.7 7.94 4.45 10.69s6.55 4.48 10.72 4.48h116.45c4.17 0 7.94-1.73 10.71-4.48 2.75-2.75 4.45-6.55 4.45-10.69 0-4.17-1.7-7.97-4.45-10.71a15.129 15.129 0 0 0-10.71-4.45zM73.39 330.59c40.54 0 73.39-32.85 73.39-73.39s-32.85-73.39-73.39-73.39c-23.05 0-44.53 10.71-58.42 28.97C5.56 225.12 0 240.51 0 257.2c0 40.48 32.8 73.39 73.39 73.39zm-24.8-64.14c4.2-1.76 9.04.26 10.77 4.45.57 1.36 1.25 2.64 1.98 3.77 2.58 3.94 6.07 6.24 9.64 7.2 3.63.96 7.34.68 10.37-.6.68-.28 1.33-.62 1.96-1.05.54-.34.99-.71 1.39-1.11 1.11-1.16 1.84-2.58 2.04-4.02.17-1.3-.11-2.69-.94-3.97-.31-.48-.65-.91-1.08-1.3-1.56-1.53-5.73-2.52-10.12-3.57-7.54-1.76-15.56-3.66-21.88-10.15a22.52 22.52 0 0 1-5.13-8.45c-1.39-4.08-1.64-8.56-.71-12.84.94-4.31 3.12-8.48 6.58-11.85 2.47-2.41 5.58-4.39 9.35-5.67.74-.25 1.5-.48 2.32-.68v-7.43c0-4.54 3.69-8.25 8.25-8.25s8.25 3.71 8.25 8.25v7.09c1.42.31 2.78.71 4.11 1.22 7.03 2.58 12.95 7.65 15.65 15.59.23.65.43 1.36.62 2.13 1.08 4.42-1.62 8.9-6.04 9.98s-8.87-1.62-9.98-6.04c-.06-.23-.11-.48-.23-.77-.91-2.66-3.06-4.45-5.7-5.41-3.29-1.22-7.14-1.3-10.6-.45-.43.11-.88.23-1.36.4-1.33.45-2.41 1.11-3.17 1.87-1.02.96-1.64 2.21-1.93 3.52-.31 1.39-.23 2.81.2 4.08.28.85.74 1.62 1.3 2.24 2.95 3 8.56 4.34 13.83 5.58 6.69 1.56 12.98 3.06 17.89 7.8 1.33 1.33 2.47 2.69 3.37 4.08 3.12 4.76 4.14 10.09 3.46 15.19-.68 4.96-3 9.67-6.58 13.32-1.28 1.3-2.66 2.47-4.14 3.43-1.45.94-3 1.76-4.68 2.47-1.9.79-3.94 1.42-6.04 1.81v6.89c0 4.56-3.69 8.28-8.25 8.28s-8.25-3.71-8.25-8.28v-7.88c-6.66-2.15-12.95-6.55-17.6-13.63a40.453 40.453 0 0 1-3.4-6.46c-1.7-4.21.28-9.03 4.48-10.78z" fill="#ff2d2d" opacity="1" data-original="#000000" class=""></path></g></g></svg>