<svg xmlns="http://www.w3.org/2000/svg" version="1.1" xmlns:xlink="http://www.w3.org/1999/xlink" width="512" height="512" x="0" y="0" viewBox="0 0 64 64" style="enable-background:new 0 0 512 512" xml:space="preserve" class=""><g><path d="M41 43c0-1.731 0-7 5-7h10v-6c0-2.757-2.243-5-5-5H8c-2.757 0-5 2.243-5 5v26c0 2.757 2.243 5 5 5h43c2.757 0 5-2.243 5-5v-6H46c-5 0-5-5.269-5-7zM43 23v-6.062c0-1.033-.539-1.97-1.442-2.506a3.027 3.027 0 0 0-3.021-.054L21.246 23z" fill="#ff3e3e" opacity="1" data-original="#000000" class=""></path><circle cx="49" cy="43" r="2" fill="#ff3e3e" opacity="1" data-original="#000000" class=""></circle><path d="M34 14.406v-4.257a3.11 3.11 0 0 0-1.811-2.884c-1.062-.482-2.226-.304-3.114.475L11.659 23h5.106zM58 38H46c-1.801 0-3 .851-3 5s1.199 5 3 5h12c1.654 0 3-1.346 3-3v-4c0-1.654-1.346-3-3-3zm-9 9c-2.206 0-4-1.794-4-4s1.794-4 4-4 4 1.794 4 4-1.794 4-4 4zM61.779 8.798l-4.6-6.188a1.491 1.491 0 0 0-2.394.001l-4.572 6.157a.721.721 0 0 0 .51 1.232h2.258a7.212 7.212 0 0 1-3.357 7.625L49 18l4 3 .176-.117A13.082 13.082 0 0 0 59 10h2.281a.704.704 0 0 0 .498-1.202z" fill="#ff3e3e" opacity="1" data-original="#000000" class=""></path></g></svg>