<svg xmlns="http://www.w3.org/2000/svg" version="1.1" xmlns:xlink="http://www.w3.org/1999/xlink" width="512" height="512" x="0" y="0" viewBox="0 0 512 512" style="enable-background:new 0 0 512 512" xml:space="preserve" class=""><g><path d="M487.83 319.44 295.63 36.88a48 48 0 0 0-79.26 0L24.17 319.44a47.1 47.1 0 0 0 16.93 68.13l192.2 102.75a48.05 48.05 0 0 0 45.4 0l192.2-102.75a47.1 47.1 0 0 0 16.93-68.13zm-431.26 41a16.12 16.12 0 0 1-8-10.38 16.8 16.8 0 0 1 2.37-13.62L232.66 69.26c2.18-3.21 7.34-1.72 7.34 2.13v374c0 5.9-6.54 9.63-11.87 6.78z" fill="#efe6e6" opacity="1" data-original="#000000" class=""></path></g></svg>